<svg width="353" height="353" viewBox="0 0 353 353" fill="none" xmlns="http://www.w3.org/2000/svg">
<path d="M260.15 302.72L259.29 303.58L258.86 304.01C258.43 304.01 258 304.44 258 304.44C258 304.44 257.57 304.44 257.57 304.87C257.14 304.87 256.71 305.3 255.85 305.3H219.73V318.2C219.73 322.93 215.86 326.8 211.13 326.8H141.9C137.17 326.8 133.3 322.93 133.3 318.2V275.2C133.3 270.47 137.17 266.6 141.9 266.6H210.7C215.43 266.6 219.3 270.47 219.3 275.2V288.1H249.83L352.6 173.29C350.88 77.4 272.62 0 176.3 0C79.12 0 0 79.12 0 176.3C0 273.48 79.12 352.6 176.3 352.6C265.31 352.6 338.84 286.38 350.88 200.81L260.15 302.72C260.15 302.29 260.15 302.29 260.15 302.72ZM43.43 167.27C43.43 170.28 43 173.29 43 176.3C43 181.03 39.13 184.9 34.4 184.9C29.67 184.9 25.8 181.03 25.8 176.3C25.8 93.31 93.31 25.8 176.3 25.8C181.03 25.8 184.9 29.67 184.9 34.4C184.9 39.13 181.03 43 176.3 43C173.29 43 170.28 43 167.27 43.43C101.05 47.73 47.73 101.05 43.43 167.27ZM107.5 176.3C107.5 138.46 138.46 107.5 176.3 107.5C214.14 107.5 245.1 138.46 245.1 176.3C245.1 214.14 214.14 245.1 176.3 245.1C138.46 245.1 107.5 214.14 107.5 176.3ZM227.9 176.3C227.9 147.92 204.68 124.7 176.3 124.7C147.92 124.7 124.7 147.92 124.7 176.3C124.7 204.68 147.92 227.9 176.3 227.9C204.68 227.9 227.9 204.68 227.9 176.3ZM150.5 176.3C150.5 162.11 162.11 150.5 176.3 150.5C190.49 150.5 202.1 162.11 202.1 176.3C202.1 190.49 190.49 202.1 176.3 202.1C162.11 202.1 150.5 190.49 150.5 176.3ZM176.3 184.9C171.57 184.9 167.7 181.03 167.7 176.3C167.7 171.57 171.57 167.7 176.3 167.7C181.03 167.7 184.9 171.57 184.9 176.3C184.9 181.03 181.03 184.9 176.3 184.9ZM150.5 309.6V283.8H202.1V309.6H150.5Z" fill="#000000"/>
</svg>
