<svg width="392" height="392" viewBox="0 0 392 392" fill="none" xmlns="http://www.w3.org/2000/svg">
<path d="M289.22 336.546L288.263 337.502L287.785 337.98C287.307 337.98 286.829 338.459 286.829 338.459C286.829 338.459 286.351 338.459 286.351 338.937C285.873 338.937 285.395 339.415 284.439 339.415H244.283V353.756C244.283 359.015 239.98 363.317 234.722 363.317H157.756C152.498 363.317 148.195 359.015 148.195 353.756V305.951C148.195 300.693 152.498 296.39 157.756 296.39H234.244C239.502 296.39 243.805 300.693 243.805 305.951V320.293H277.746L392 192.654C390.088 86.0488 303.083 0 196 0C87.961 0 0 87.961 0 196C0 304.039 87.961 392 196 392C294.956 392 376.702 318.38 390.088 223.249L289.22 336.546C289.22 336.068 289.22 336.068 289.22 336.546ZM48.2829 185.961C48.2829 189.307 47.8049 192.654 47.8049 196C47.8049 201.259 43.5024 205.561 38.2439 205.561C32.9854 205.561 28.6829 201.259 28.6829 196C28.6829 103.737 103.737 28.6829 196 28.6829C201.259 28.6829 205.561 32.9854 205.561 38.2439C205.561 43.5024 201.259 47.8049 196 47.8049C192.654 47.8049 189.307 47.8049 185.961 48.2829C112.341 53.0634 53.0634 112.341 48.2829 185.961ZM119.512 196C119.512 153.932 153.932 119.512 196 119.512C238.068 119.512 272.488 153.932 272.488 196C272.488 238.068 238.068 272.488 196 272.488C153.932 272.488 119.512 238.068 119.512 196ZM253.366 196C253.366 164.449 227.551 138.634 196 138.634C164.449 138.634 138.634 164.449 138.634 196C138.634 227.551 164.449 253.366 196 253.366C227.551 253.366 253.366 227.551 253.366 196ZM167.317 196C167.317 180.224 180.224 167.317 196 167.317C211.776 167.317 224.683 180.224 224.683 196C224.683 211.776 211.776 224.683 196 224.683C180.224 224.683 167.317 211.776 167.317 196ZM196 205.561C190.741 205.561 186.439 201.259 186.439 196C186.439 190.741 190.741 186.439 196 186.439C201.259 186.439 205.561 190.741 205.561 196C205.561 201.259 201.259 205.561 196 205.561ZM167.317 344.195V315.512H224.683V344.195H167.317Z" fill="white"/>
</svg>
